<svg xmlns="http://www.w3.org/2000/svg" width="124" height="35" fill="none" viewBox="0 0 124 35">
    <g clip-path="url(#a)">
        <path fill="#000" d="M123.065 31.465a3.535 3.535 0 0 1-3.564 3.53H3.563C1.617 35 0 33.456 0 31.465V3.53C0 1.608 1.617 0 3.563 0h115.943c1.941 0 3.563 1.608 3.563 3.53v27.935h-.004z"/>
        <path fill="#fff" d="M27.012 17.34c0-2.955 2.46-4.366 2.524-4.43-1.426-1.99-3.563-2.31-4.338-2.31-1.813-.192-3.563 1.091-4.534 1.091-.97 0-2.397-1.091-3.887-1.027-2.01 0-3.823 1.155-4.857 2.954-2.073 3.594-.52 8.865 1.49 11.75.97 1.412 2.201 3.02 3.691 2.955 1.49-.064 2.073-.963 3.887-.963 1.813 0 2.333.963 3.887.9 1.617 0 2.656-1.412 3.563-2.891 1.167-1.608 1.617-3.21 1.617-3.339.064-.005-2.98-1.16-3.043-4.69zM24.096 8.604c.779-1.028 1.362-2.375 1.23-3.727-1.167.064-2.657.772-3.5 1.8-.71.835-1.426 2.246-1.23 3.593 1.299.07 2.656-.639 3.5-1.666zM48.774 28.063h-2.137l-1.166-3.594h-4.015l-1.102 3.594H38.28l3.95-12.203h2.461l4.083 12.203zm-3.627-5.074l-1.034-3.21c-.127-.32-.324-1.092-.647-2.311h-.064c-.127.511-.323 1.283-.583 2.31l-1.034 3.211h3.362zM58.944 23.57c0 1.474-.387 2.698-1.23 3.53-.71.771-1.617 1.155-2.72 1.155-1.167 0-2.01-.384-2.525-1.22v4.622h-1.94v-9.504c0-.963 0-1.927-.064-2.89h1.75l.127 1.41h.064c.647-1.027 1.686-1.607 2.98-1.607 1.034 0 1.94.383 2.593 1.22.573.84.965 1.931.965 3.283zm-2.01.063c0-.836-.195-1.539-.583-2.119-.455-.58-.97-.9-1.686-.9-.52 0-.906.192-1.294.448-.387.32-.647.772-.779 1.283-.127.256-.127.447-.127.644V24.4c0 .644.196 1.155.583 1.608.387.447.907.644 1.554.644.71 0 1.294-.256 1.75-.836.387-.516.583-1.283.583-2.183zM69.11 23.57c0 1.474-.387 2.698-1.23 3.53-.71.771-1.618 1.155-2.72 1.155-1.167 0-2.01-.384-2.525-1.22h-.063v4.622H60.63v-9.504c0-.963 0-1.927-.064-2.89h1.75l.127 1.41h.064c.647-1.027 1.686-1.607 2.98-1.607 1.034 0 1.94.383 2.593 1.22.706.84 1.03 1.931 1.03 3.283zm-2.005.063c0-.836-.196-1.539-.583-2.119-.456-.58-.97-.9-1.686-.9-.52 0-.907.192-1.294.448-.387.32-.647.772-.78 1.283-.063.256-.063.447-.063.58V24.4c0 .644.196 1.155.583 1.608.388.447.907.644 1.554.644.71 0 1.294-.256 1.75-.836.323-.516.52-1.283.52-2.183zM80.51 24.66c0 1.028-.387 1.864-1.102 2.503-.78.708-1.941 1.092-3.368 1.092-1.294 0-2.396-.256-3.176-.772l.456-1.608c.843.512 1.814.772 2.848.772.71 0 1.294-.192 1.75-.511.387-.32.647-.772.647-1.347 0-.512-.197-.9-.52-1.22-.323-.32-.907-.644-1.686-.963-2.137-.772-3.24-1.991-3.24-3.466 0-1.028.387-1.8 1.103-2.439.78-.644 1.75-.963 2.98-.963 1.103 0 2.073.191 2.784.58l-.52 1.607a4.843 4.843 0 0 0-2.333-.58c-.71 0-1.23.192-1.617.512-.324.32-.52.644-.52 1.091 0 .511.196.9.584 1.22.323.319.906.58 1.813.963 1.034.447 1.814.9 2.333 1.475.588.447.784 1.155.784 2.055zM87.054 20.742h-2.2v4.238c0 1.092.387 1.608 1.166 1.608.323 0 .647 0 .907-.064l.063 1.475c-.387.128-.906.192-1.553.192-.78 0-1.363-.256-1.814-.708-.456-.448-.647-1.284-.647-2.375v-4.43h-1.294v-1.41h1.294V17.66l1.941-.58v2.183h2.2v1.474h-.063v.005zM96.832 23.57c0 1.346-.387 2.438-1.166 3.338-.843.9-1.877 1.347-3.24 1.347-1.294 0-2.333-.448-3.108-1.284-.779-.835-1.166-1.927-1.166-3.21 0-1.347.387-2.502 1.166-3.338.78-.9 1.878-1.283 3.24-1.283 1.294 0 2.333.447 3.108 1.283.779.767 1.166 1.858 1.166 3.146zm-2.004.063c0-.835-.197-1.475-.52-2.055-.387-.708-.97-1.027-1.75-1.027s-1.426.32-1.813 1.027c-.324.58-.52 1.283-.52 2.12 0 .835.196 1.474.52 2.054.456.708 1.034 1.028 1.813 1.028.78 0 1.363-.384 1.75-1.092.323-.516.52-1.224.52-2.055zM103.248 20.998c-.196-.064-.387-.064-.647-.064-.711 0-1.23.256-1.617.772-.324.447-.52 1.027-.52 1.736v4.62h-1.946v-6.037c0-1.027 0-1.927-.063-2.762h1.686l.063 1.671h.064c.196-.58.52-1.027.971-1.41.455-.32.906-.448 1.426-.448.196 0 .323 0 .519.064v1.863h.064v-.005zM112.056 23.245c0 .32 0 .644-.064.9h-5.896c0 .9.323 1.538.843 1.99.52.384 1.167.645 1.941.645.907 0 1.686-.128 2.397-.384l.323 1.347c-.843.384-1.813.512-2.98.512-1.362 0-2.46-.384-3.24-1.22-.779-.771-1.166-1.863-1.166-3.21s.387-2.439 1.103-3.338c.779-.964 1.813-1.411 3.107-1.411 1.294 0 2.27.447 2.917 1.41.455.704.715 1.667.715 2.759zm-1.877-.512c0-.58-.128-1.09-.387-1.474-.324-.512-.843-.836-1.554-.836-.647 0-1.167.255-1.554.772-.323.447-.519.9-.583 1.538h4.078zM39.314 5.846c.196-.128.456-.256.71-.32.26-.064.584-.128.907-.128.584 0 1.035.128 1.363.384.324.255.52.644.52 1.091 0 .384-.128.708-.324.9-.196.255-.52.383-.843.511.196 0 .387.064.52.128.196.064.323.192.455.32.128.127.26.255.324.447s.127.32.127.58c0 .32-.063.58-.196.836-.127.255-.323.383-.52.58a2.472 2.472 0 0 1-.71.32c-.323.064-.583.064-.843.064s-.583 0-.843-.064-.52-.128-.78-.32l.26-.708c.128.064.324.128.584.192.26.064.52.128.71.128.388 0 .711-.064.97-.256.197-.192.324-.447.324-.772 0-.192-.063-.383-.127-.511a.78.78 0 0 0-.324-.32 1.2 1.2 0 0 0-.455-.128c-.197 0-.324-.064-.52-.064h-.456v-.708h.387c.197 0 .388 0 .52-.063.127-.064.323-.128.387-.192.128-.064.196-.192.26-.32s.127-.255.127-.383a.826.826 0 0 0-.26-.644 1.414 1.414 0 0 0-.779-.256 2.29 2.29 0 0 0-.647.128 2.32 2.32 0 0 0-.583.256l-.245-.708zM47.024 11.495l-.063-.512c-.324.384-.711.58-1.294.58-.197 0-.388-.064-.52-.127-.127-.064-.323-.128-.387-.256a1.36 1.36 0 0 1-.26-.384 1.207 1.207 0 0 1-.127-.51c0-.512.196-.965.647-1.22.455-.256 1.102-.384 1.877-.384v-.078c0-.58-.324-.836-.907-.836-.456 0-.78.128-1.166.32l-.197-.645c.388-.255.907-.383 1.49-.383 1.167 0 1.687.58 1.687 1.8v1.607c0 .447 0 .772.063 1.027h-.843zm-.127-2.183c-.52 0-.97.064-1.23.191a.701.701 0 0 0-.388.644c0 .256.064.384.196.512.128.128.26.191.456.191.128 0 .26 0 .324-.063.127-.064.196-.128.323-.192l.196-.256c.064-.128.064-.255.064-.32v-.707h.059zM52.465 7.193v.772H50.65v3.53h-.97V7.193h2.784zM58.038 9.248c0 .32-.064.644-.128.963-.063.256-.26.512-.387.708-.196.192-.387.384-.583.448-.324.191-.584.191-.843.191-.584 0-.97-.191-1.23-.644v2.247h-.971V8.476v-.708-.708h.843l.064.708c.323-.511.843-.772 1.49-.772.26 0 .52.064.71.128.197.128.388.255.584.447.196.192.26.448.387.708-.005.389.064.65.064.969zm-.976.064c0-.192 0-.384-.063-.58a2.625 2.625 0 0 0-.197-.448c-.127-.128-.196-.256-.387-.32a1.2 1.2 0 0 0-.456-.127c-.127 0-.26 0-.387.064s-.26.127-.323.255c-.128.128-.196.192-.26.384-.064.128-.064.32-.064.447v.708c0 .128 0 .32.064.447.064.128.127.256.196.384.064.128.196.192.324.256.127.063.26.063.455.063.388 0 .647-.127.843-.383.128-.315.255-.703.255-1.15zM63.219 7.193l-1.103 3.018c-.26.708-.52 1.284-.78 1.736-.26.447-.455.772-.71.964-.324.32-.71.447-1.034.51l-.26-.835c.26-.064.52-.192.71-.383.26-.192.388-.448.52-.708l.064-.192-.064-.192-1.554-3.982h1.034l.843 2.438c.064.128.064.256.128.384s.064.32.127.447c0-.064.064-.191.128-.383.064-.128.064-.32.127-.512l.711-2.374h1.103v.064h.01zM64.9 8.992h.455c.324 0 .584-.064.78-.192.196-.127.26-.255.26-.447s-.064-.32-.26-.447c-.128-.128-.388-.192-.647-.192-.196 0-.324 0-.52.064s-.323.128-.52.191l-.26-.644c.26-.127.52-.255.78-.255.26-.064.52-.064.78-.064.195 0 .387 0 .583.064.196.064.387.128.52.192.127.063.259.191.386.383.128.128.128.32.128.58 0 .128 0 .256-.064.384l-.196.255-.323.192-.324.128c.127 0 .26.064.387.128l.388.191c.127.064.196.192.26.32.063.128.127.256.127.383 0 .256-.064.448-.196.645-.128.191-.26.32-.456.383a1.105 1.105 0 0 1-.647.192c-.26.064-.456.064-.71.064-.26 0-.52 0-.78-.064s-.52-.128-.71-.256l.259-.644c.127.064.323.128.52.192.195.064.387.064.583.064.323 0 .583-.064.779-.192.196-.128.26-.256.26-.447 0-.128 0-.256-.064-.32l-.26-.192c-.127-.064-.26-.064-.387-.128H64.9v-.51zM70.085 7.193v2.502c0 .256 0 .58-.063.9.127-.256.196-.447.323-.644.128-.192.196-.448.324-.644l1.103-2.055h1.23v4.302h-.907v-1.54-.963c0-.32 0-.644.064-.963h-.064c-.127.255-.196.51-.323.708-.128.191-.197.383-.324.58-.196.383-.387.708-.583 1.091-.196.384-.387.708-.584 1.091h-1.23V7.258h1.034v-.064zM78.114 7.193v.772H76.82v3.53h-.97v-3.53h-1.295v-.772h3.559zM83.103 9.12v.447h-2.916c0 .384.127.708.387.964.26.192.584.32.97.32.457 0 .844-.064 1.167-.192l.128.644c-.388.192-.907.255-1.49.255a3.88 3.88 0 0 1-.907-.127c-.26-.128-.52-.256-.71-.448-.197-.191-.324-.447-.457-.708-.127-.255-.127-.58-.127-.9 0-.319.064-.643.127-.9.128-.255.26-.51.388-.707.196-.192.387-.383.647-.511s.52-.192.843-.192c.26 0 .52.064.779.128.196.128.387.255.583.447.128.192.26.384.387.644.138.256.201.512.201.836zm-.97-.26c0-.32-.064-.645-.26-.836-.196-.192-.387-.32-.71-.32-.26 0-.52.128-.711.32-.196.191-.324.511-.324.835h2.005zM86.99 7.193c.196 0 .387-.064.647-.064h1.427c.196 0 .455.064.647.128.196.064.387.191.52.32.127.127.195.319.195.58 0 .127 0 .255-.064.319l-.196.256-.26.191c-.127.064-.196.064-.323.128.324.064.583.192.78.32.195.191.323.383.323.708 0 .32-.064.51-.26.708-.196.191-.387.32-.647.383l-.78.192c-.259 0-.519.064-.71.064h-.71c-.255 0-.456 0-.584-.064v-4.17h-.005zm.907 1.735h.52c.127 0 .323 0 .455-.064a.5.5 0 0 0 .324-.128l.26-.191.063-.256c0-.192-.063-.32-.26-.447a2.47 2.47 0 0 0-.779-.128h-.583v1.214zm0 1.922h.971c.127 0 .26-.063.387-.127a.913.913 0 0 0 .26-.192.489.489 0 0 0 .127-.32c0-.255-.127-.447-.324-.51a3.057 3.057 0 0 0-.906-.129h-.52v1.279h.005z"/>
    </g>
    <defs>
        <clipPath id="a">
            <path fill="#fff" d="M0 0h123.065v35H0z"/>
        </clipPath>
    </defs>
</svg>
