<svg xmlns="http://www.w3.org/2000/svg" width="30" height="30" fill="none" viewBox="0 0 30 30">
    <path fill="#fff" d="M15 30c8.267 0 15-6.733 15-15S23.267 0 15 0 0 6.733 0 15s6.733 15 15 15zm0-27.933c7.133 0 12.933 5.8 12.933 12.933S22.133 27.933 15 27.933 2.067 22.133 2.067 15 7.867 2.067 15 2.067z"/>
    <path fill="#fff" d="M12.5 20.233c.2.167.433.234.667.234.266 0 .533-.1.733-.3l8.767-8.867c.4-.4.4-1.067 0-1.467-.4-.4-1.067-.4-1.467 0l-8.1 8.2L9.633 15.1c-.433-.367-1.1-.3-1.466.133-.367.434-.3 1.1.133 1.467l4.2 3.533z"/>
</svg>
