<svg xmlns="http://www.w3.org/2000/svg" xmlns:xlink="http://www.w3.org/1999/xlink" viewBox="0 0 557.56 160"><defs><style>.cls-1,.cls-11{fill:none;}.cls-2{fill:#13110c;}.cls-3{fill:#fff;}.cls-4{fill:#70c8f2;}.cls-5{clip-path:url(#clip-path);}.cls-6{fill:url(#Безымянный_градиент_4);}.cls-7{clip-path:url(#clip-path-2);}.cls-8{fill:url(#Безымянный_градиент_2);}.cls-9{clip-path:url(#clip-path-3);}.cls-10{fill:url(#Безымянный_градиент_3);}.cls-11{stroke:#fff;stroke-miterlimit:10;stroke-width:1.25px;}</style><clipPath id="clip-path"><path class="cls-1" d="M92,79.39v1.22L109.22,97.9l.41-.22L130.1,86c5.85-3.32,5.85-8.76,0-12.08L109.63,62.33l-.39-.23Z"/></clipPath><linearGradient id="Безымянный_градиент_4" x1="3411.69" y1="5678.12" x2="3417.35" y2="5678.12" gradientTransform="translate(61207.07 101737.44) rotate(180) scale(17.9)" gradientUnits="userSpaceOnUse"><stop offset="0" stop-color="#ffe000"/><stop offset="0.42" stop-color="#f9bb00"/><stop offset="0.78" stop-color="#f5a300"/><stop offset="1" stop-color="#f49a00"/></linearGradient><clipPath id="clip-path-2"><path class="cls-1" d="M39.8,132.15c1.94,2,5.11,2.29,8.71.25l61.12-34.72L92,80Z"/></clipPath><linearGradient id="Безымянный_градиент_2" x1="3171.61" y1="5641.75" x2="3177.26" y2="5641.75" gradientTransform="translate(75633.45 134459.15) rotate(180) scale(23.81)" gradientUnits="userSpaceOnUse"><stop offset="0" stop-color="#e6393d"/><stop offset="1" stop-color="#c70e66"/></linearGradient><clipPath id="clip-path-3"><path class="cls-1" d="M39.8,27.85,92,80l17.68-17.68L48.51,27.59a9.71,9.71,0,0,0-4.7-1.4,5.43,5.43,0,0,0-4,1.66"/></clipPath><linearGradient id="Безымянный_градиент_3" x1="2909.51" y1="5321.45" x2="2915.17" y2="5321.45" gradientTransform="translate(103478.41 -56588.16) rotate(90) scale(19.43)" gradientUnits="userSpaceOnUse"><stop offset="0" stop-color="#229866"/><stop offset="0.15" stop-color="#339f64"/><stop offset="0.52" stop-color="#5bae5e"/><stop offset="0.82" stop-color="#73b85b"/><stop offset="1" stop-color="#7cbb5a"/></linearGradient></defs><title>Монтажная область 93 копия</title><g id="button"><path class="cls-2" d="M557.56,144a16,16,0,0,1-16.06,16H16.08A16.06,16.06,0,0,1,0,144V16.06A16.08,16.08,0,0,1,16.08,0H541.5a16.05,16.05,0,0,1,16,16.06V144Z"/><path class="cls-3" d="M281.44,87.34a17.81,17.81,0,1,0,17.88,17.81,17.56,17.56,0,0,0-17.88-17.81m0,28.6c-5.4,0-10.06-4.45-10.06-10.79s4.66-10.8,10.06-10.8,10.05,4.39,10.05,10.8-4.66,10.79-10.05,10.79m-39-28.6a17.81,17.81,0,1,0,17.88,17.81,17.56,17.56,0,0,0-17.88-17.81m0,28.6c-5.4,0-10.05-4.45-10.05-10.79s4.65-10.8,10.05-10.8,10.05,4.39,10.05,10.8-4.65,10.79-10.05,10.79M196,92.8v7.56h18.09c-.55,4.25-2,7.35-4.12,9.51-2.63,2.63-6.75,5.53-14,5.53a20.11,20.11,0,0,1,0-40.21,19.23,19.23,0,0,1,13.63,5.4L215,75.26a26.34,26.34,0,0,0-19-7.62C180.8,67.64,168,80.05,168,95.29S180.8,123,196,123c8.24,0,14.44-2.7,19.3-7.76s6.55-12,6.55-17.68a24.62,24.62,0,0,0-.41-4.72Zm189.74,5.87c-1.49-4-6-11.33-15.24-11.33s-16.81,7.21-16.81,17.81A17.43,17.43,0,0,0,371.41,123a17.72,17.72,0,0,0,14.84-7.89l-6.07-4a10.18,10.18,0,0,1-8.77,4.92,9.05,9.05,0,0,1-8.63-5.39l23.81-9.85Zm-24.29,5.94a9.78,9.78,0,0,1,9.31-10.39c3.11,0,5.74,1.55,6.62,3.78Zm-19.36,17.27H350V69.52h-7.83ZM329.31,91.32H329a12.33,12.33,0,0,0-9.38-4c-8.9,0-17.06,7.82-17.06,17.87S310.76,123,319.66,123a12.12,12.12,0,0,0,9.38-4h.27v2.56c0,6.82-3.64,10.46-9.51,10.46a9.85,9.85,0,0,1-9-6.34L304,128.42A17,17,0,0,0,319.8,139c9.18,0,16.94-5.4,16.94-18.56v-32h-7.43Zm-9,24.62c-5.4,0-9.92-4.52-9.92-10.73s4.52-10.86,9.92-10.86,9.51,4.59,9.51,10.86-4.18,10.73-9.51,10.73m102.1-46.42H403.71v52.36h7.82V102h10.91c8.66,0,17.17-6.26,17.17-16.26s-8.51-16.26-17.17-16.26m.2,25.24H411.53v-18h11.11a9,9,0,1,1,0,18m48.29-7.52c-5.65,0-11.51,2.49-13.94,8l6.94,2.89c1.48-2.89,4.24-3.84,7.14-3.84,4,0,8.15,2.43,8.21,6.74v.53a17.35,17.35,0,0,0-8.15-2c-7.47,0-15.08,4.12-15.08,11.79,0,7,6.13,11.52,13,11.52,5.25,0,8.15-2.36,10-5.12h.26v4h7.55V101.72c0-9.29-6.94-14.48-15.9-14.48M470,115.93c-2.56,0-6.13-1.28-6.13-4.44,0-4,4.45-5.59,8.29-5.59a13.88,13.88,0,0,1,7.13,1.75,9.46,9.46,0,0,1-9.29,8.28m44.32-27.55-9,22.7h-.27l-9.3-22.7h-8.42l13.95,31.73-7.95,17.64h8.15L523,88.38Zm-70.39,33.5h7.82V69.52h-7.82Z"/><path class="cls-4" d="M39.81,27.85a8.39,8.39,0,0,0-1.94,5.88v92.54a8.37,8.37,0,0,0,1.94,5.88l.31.3L92,80.61V79.39L40.12,27.55Z"/><g class="cls-5"><rect class="cls-6" x="91.95" y="62.1" width="44" height="35.79"/></g><g class="cls-7"><rect class="cls-8" x="30.78" y="63.29" width="87.86" height="87.86" transform="translate(-53.94 84.24) rotate(-45)"/></g><g class="cls-9"><rect class="cls-10" x="31" y="9.38" width="87.43" height="87.43" transform="translate(-15.66 68.38) rotate(-45)"/></g><path class="cls-3" d="M172.47,56h-3.09V47.6h2.46Q175.09,44.79,175,38V25.57h16.78v22h2.8V56h-3.09V50.69H172.47Zm5.79-18q.08,6-2.39,9.62h12.7v-19H178.26Z"/><path class="cls-11" d="M172.47,56h-3.09V47.6h2.46Q175.09,44.79,175,38V25.57h16.78v22h2.8V56h-3.09V50.69H172.47Zm5.79-18q.08,6-2.39,9.62h12.7v-19H178.26Z"/><path class="cls-3" d="M219.79,47.44a13.06,13.06,0,0,1-18.42,0,12.84,12.84,0,0,1-3.7-9.31,12.87,12.87,0,0,1,3.7-9.33,13,13,0,0,1,18.4,0,12.81,12.81,0,0,1,3.72,9.31,12.84,12.84,0,0,1-3.7,9.31m-16-2.11a9.64,9.64,0,0,0,13.65,0,9.81,9.81,0,0,0,2.8-7.2,9.85,9.85,0,0,0-2.8-7.22,9.67,9.67,0,0,0-13.65,0A9.88,9.88,0,0,0,201,38.13a9.85,9.85,0,0,0,2.79,7.2"/><path class="cls-11" d="M219.79,47.44a13.06,13.06,0,0,1-18.42,0,12.84,12.84,0,0,1-3.7-9.31,12.87,12.87,0,0,1,3.7-9.33,13,13,0,0,1,18.4,0,12.81,12.81,0,0,1,3.72,9.31A12.84,12.84,0,0,1,219.79,47.44Zm-16-2.11a9.64,9.64,0,0,0,13.65,0,9.81,9.81,0,0,0,2.8-7.2,9.85,9.85,0,0,0-2.8-7.22,9.67,9.67,0,0,0-13.65,0A9.88,9.88,0,0,0,201,38.13,9.85,9.85,0,0,0,203.75,45.33Z"/><path class="cls-3" d="M239.75,51.25a12.85,12.85,0,0,1-13.06-13.13A12.85,12.85,0,0,1,239.75,25,11.63,11.63,0,0,1,249,29.1l-2.25,2.19a8.42,8.42,0,0,0-7-3.2,9.5,9.5,0,0,0-6.94,2.77A9.73,9.73,0,0,0,230,38.12a9.74,9.74,0,0,0,2.82,7.27,9.5,9.5,0,0,0,6.94,2.77,9.89,9.89,0,0,0,7.71-3.65l2.25,2.25A12.33,12.33,0,0,1,245.39,50a13.13,13.13,0,0,1-5.64,1.21"/><path class="cls-11" d="M239.75,51.25a12.85,12.85,0,0,1-13.06-13.13A12.85,12.85,0,0,1,239.75,25,11.63,11.63,0,0,1,249,29.1l-2.25,2.19a8.42,8.42,0,0,0-7-3.2,9.5,9.5,0,0,0-6.94,2.77A9.73,9.73,0,0,0,230,38.12a9.74,9.74,0,0,0,2.82,7.27,9.5,9.5,0,0,0,6.94,2.77,9.89,9.89,0,0,0,7.71-3.65l2.25,2.25A12.33,12.33,0,0,1,245.39,50,13.13,13.13,0,0,1,239.75,51.25Z"/><polygon class="cls-3" points="262.77 50.69 259.54 50.69 259.54 28.65 252.52 28.65 252.52 25.57 269.79 25.57 269.79 28.65 262.77 28.65 262.77 50.69"/><polygon class="cls-11" points="262.77 50.69 259.54 50.69 259.54 28.65 252.52 28.65 252.52 25.57 269.79 25.57 269.79 28.65 262.77 28.65 262.77 50.69"/><path class="cls-3" d="M292,25.56l-9.5,21.19q-2,4.5-5.86,4.5a6.38,6.38,0,0,1-2.5-.57l.85-3a3.36,3.36,0,0,0,1.68.45,3,3,0,0,0,1.74-.43,4.09,4.09,0,0,0,1.14-1.6l.91-2L272,25.56h3.8L282,40h.14l6.07-14.43Z"/><path class="cls-11" d="M292,25.56l-9.5,21.19q-2,4.5-5.86,4.5a6.38,6.38,0,0,1-2.5-.57l.85-3a3.36,3.36,0,0,0,1.68.45,3,3,0,0,0,1.74-.43,4.09,4.09,0,0,0,1.14-1.6l.91-2L272,25.56h3.8L282,40h.14l6.07-14.43Z"/><polygon class="cls-3" points="295.61 50.69 295.61 25.57 313.79 25.57 313.79 50.69 310.56 50.69 310.56 28.65 298.84 28.65 298.84 50.69 295.61 50.69"/><polygon class="cls-11" points="295.61 50.69 295.61 25.57 313.79 25.57 313.79 50.69 310.56 50.69 310.56 28.65 298.84 28.65 298.84 50.69 295.61 50.69"/><polygon class="cls-3" points="319.54 50.69 319.54 25.57 322.77 25.57 322.77 36.33 335.33 36.33 335.33 25.57 338.56 25.57 338.56 50.69 335.33 50.69 335.33 39.35 322.77 39.35 322.77 50.69 319.54 50.69"/><polygon class="cls-11" points="319.54 50.69 319.54 25.57 322.77 25.57 322.77 36.33 335.33 36.33 335.33 25.57 338.56 25.57 338.56 50.69 335.33 50.69 335.33 39.35 322.77 39.35 322.77 50.69 319.54 50.69"/><path class="cls-3" d="M364.86,47.44a13.06,13.06,0,0,1-18.42,0,12.84,12.84,0,0,1-3.7-9.31,12.87,12.87,0,0,1,3.7-9.33,13,13,0,0,1,18.41,0,12.85,12.85,0,0,1,3.72,9.31,12.85,12.85,0,0,1-3.71,9.31m-16-2.11a9.64,9.64,0,0,0,13.65,0,9.81,9.81,0,0,0,2.79-7.2,9.84,9.84,0,0,0-2.79-7.22,9.67,9.67,0,0,0-13.65,0A9.84,9.84,0,0,0,346,38.13a9.81,9.81,0,0,0,2.79,7.2"/><path class="cls-11" d="M364.86,47.44a13.06,13.06,0,0,1-18.42,0,12.84,12.84,0,0,1-3.7-9.31,12.87,12.87,0,0,1,3.7-9.33,13,13,0,0,1,18.41,0,12.85,12.85,0,0,1,3.72,9.31A12.85,12.85,0,0,1,364.86,47.44Zm-16-2.11a9.64,9.64,0,0,0,13.65,0,9.81,9.81,0,0,0,2.79-7.2,9.84,9.84,0,0,0-2.79-7.22,9.67,9.67,0,0,0-13.65,0A9.84,9.84,0,0,0,346,38.13,9.81,9.81,0,0,0,348.83,45.33Z"/><path class="cls-3" d="M381.76,50.69V25.57h9.09A7.36,7.36,0,0,1,396,27.51a6.31,6.31,0,0,1,2.16,4.89,5.47,5.47,0,0,1-.93,3.16,5.79,5.79,0,0,1-2.47,2.07v.14a6.42,6.42,0,0,1,3,2.18A5.72,5.72,0,0,1,399,43.53a6.65,6.65,0,0,1-2.26,5.13,7.79,7.79,0,0,1-5.36,2ZM385,36.33h5.86a3.79,3.79,0,0,0,2.94-1.21,3.75,3.75,0,0,0,0-5.28A3.59,3.59,0,0,0,391,28.65h-6Zm0,11.27h6.5a3.9,3.9,0,0,0,3-1.3,4.2,4.2,0,0,0,1.16-2.84,4,4,0,0,0-1.2-2.82,4.07,4.07,0,0,0-3.13-1.29H385Z"/><path class="cls-11" d="M381.76,50.69V25.57h9.09A7.36,7.36,0,0,1,396,27.51a6.31,6.31,0,0,1,2.16,4.89,5.47,5.47,0,0,1-.93,3.16,5.79,5.79,0,0,1-2.47,2.07v.14a6.42,6.42,0,0,1,3,2.18A5.72,5.72,0,0,1,399,43.53a6.65,6.65,0,0,1-2.26,5.13,7.79,7.79,0,0,1-5.36,2ZM385,36.33h5.86a3.79,3.79,0,0,0,2.94-1.21,3.75,3.75,0,0,0,0-5.28A3.59,3.59,0,0,0,391,28.65h-6Zm0,11.27h6.5a3.9,3.9,0,0,0,3-1.3,4.2,4.2,0,0,0,1.16-2.84,4,4,0,0,0-1.2-2.82,4.07,4.07,0,0,0-3.13-1.29H385Z"/></g></svg>
