<svg xmlns="http://www.w3.org/2000/svg" width="25" height="25" fill="none" viewBox="0 0 25 25">
    <g clip-path="url(#b)">
        <path fill="#ADADAD" d="M12.494 25h.012A12.493 12.493 0 0 0 25 12.503 12.505 12.505 0 0 0 17.284.952 12.497 12.497 0 0 0 .952 7.718 12.499 12.499 0 0 0 12.494 25z"/>
        <path fill="#fff" d="M12.451 12.867a3.514 3.514 0 1 0 0-7.029 3.514 3.514 0 0 0 0 7.029zm0-4.97a1.455 1.455 0 1 1 0 2.91 1.455 1.455 0 0 1 0-2.91zM13.873 15.735a6.55 6.55 0 0 0 2.04-.846 1.03 1.03 0 0 0-1.096-1.743 4.463 4.463 0 0 1-4.73 0 1.03 1.03 0 1 0-1.096 1.743c.628.395 1.318.68 2.04.846L9.064 17.7a1.03 1.03 0 0 0 1.456 1.456l1.93-1.931 1.934 1.931A1.03 1.03 0 1 0 15.84 17.7l-1.966-1.965z"/>
    </g>
    <defs>
        <clipPath id="a">
            <path fill="#fff" d="M0 0h25v25H0z"/>
        </clipPath>
        <clipPath id="b">
            <path fill="#fff" d="M0 0h25v25H0z"/>
        </clipPath>
    </defs>
</svg>
