<svg xmlns="http://www.w3.org/2000/svg" width="208" height="25" fill="none" viewBox="0 0 208 25">
    <g clip-path="url(#a)">
        <path fill="#FF7200" fill-rule="evenodd" d="M1.275 12.505A1.279 1.279 0 0 1 0 11.223V5.04c0-.477.208-.936.564-1.257.954-.85 2.879-2.576 3.92-3.512a1.058 1.058 0 0 1 1.404 0c1.04.936 2.966 2.662 3.92 3.512.355.32.563.78.563 1.257v6.183c0 .703-.572 1.275-1.275 1.275-2.003.008-5.827.008-7.821.008zm41.467 0a1.277 1.277 0 0 1-1.275-1.274V5.048c0-.477.208-.937.564-1.257.954-.85 2.879-2.576 3.92-3.512a1.058 1.058 0 0 1 1.404 0c1.04.936 2.966 2.662 3.92 3.512.355.32.563.78.563 1.257v6.183c0 .702-.572 1.274-1.274 1.274h-7.822zm-20.734 0a1.277 1.277 0 0 1-1.274-1.274V5.048c0-.477.208-.937.563-1.257.954-.85 2.88-2.576 3.92-3.512a1.058 1.058 0 0 1 1.405 0c1.04.936 2.965 2.662 3.92 3.512.355.32.563.78.563 1.257v6.183c0 .702-.573 1.274-1.275 1.274h-7.822zM32.38 25.002a1.277 1.277 0 0 1-1.275-1.275v-6.182c0-.477.208-.937.563-1.258.954-.85 2.88-2.575 3.92-3.512a1.058 1.058 0 0 1 1.405 0c1.04.937 2.965 2.662 3.92 3.512.355.321.563.78.563 1.258v6.182c0 .703-.572 1.275-1.275 1.275H32.38zm-12.93 0h-7.813a1.277 1.277 0 0 1-1.274-1.275v-6.182c0-.477.208-.937.563-1.258.954-.85 2.88-2.575 3.92-3.512a1.058 1.058 0 0 1 1.404 0c1.041.937 2.966 2.662 3.92 3.512.355.321.564.78.564 1.258v6.182c0 .703-.573 1.275-1.284 1.275z" clip-rule="evenodd"/>
        <path fill="#FF7200" d="M115.704 21.523h-1.769V9.166h3.625v6.78l.026-.025 6.408-6.755h2.446v12.357h-3.625v-6.781l-6.443 6.78h-.668zm-28.78 0h-1.77V9.166h3.625v6.78l.009-.008 6.434-6.772h2.446v12.357h-3.625v-6.781l-6.443 6.78h-.676zm24.765-9.131h-4.171v9.13h-3.711v-9.13h-4.171V9.166h12.053v3.226zm-28.798 7.214c-1.812 1.7-4.318 2.75-7.067 2.75-5.177 0-9.383-4.25-9.383-9.479 0-5.229 4.206-9.478 9.383-9.478 2.558 0 4.9.902 6.668 2.394L80.16 8.67c-1.05-.988-2.506-1.604-4.206-1.604-3.07 0-5.558 2.602-5.558 5.81 0 3.209 2.488 5.81 5.558 5.81 1.83 0 3.373-.702 4.431-1.83l2.506 2.75z"/>
        <path fill="#000" d="M166.71 15.349c.217 1.994 1.336 3.616 3.677 3.616 1.578 0 3.529-1.032 3.529-3.59 0-1.951-1.309-3.287-3.226-3.287-.208 0-.416.017-.607.044-.841.13-2.644.702-3.373 3.217zm-12.634 3.65c-1.891 0-3.59-1.673-3.59-3.59 0-1.95 1.708-3.65 3.59-3.65 2.098 0 3.772 1.7 3.772 3.65 0 1.917-1.674 3.59-3.772 3.59zm-9.131 2.524h-3.504v-6.036l-3.668 4.683h-1.63l-3.668-4.683v6.036h-3.503V9.174h2.454l5.541 6.816 5.541-6.816h2.454v12.349h-.017zm36.455 0h-1.769V9.166h3.624v6.78l6.435-6.78h2.436v12.357h-3.624v-6.79l-6.443 6.79h-.659zm25.85 0h-3.504V12.34h-3.564v4.535c0 3.824-2.636 5.298-5.706 4.648V18.73c1.501 0 2.003-.312 2.003-2.254v-7.31h10.771v12.357zM171.965 8.975c3.373.356 5.359 2.61 5.359 6.4-.121 3.867-2.437 6.971-6.816 6.971-4.873 0-7.24-2.948-7.24-8.61 0-4.475 1.699-7.64 5.541-9.192 1.673-.668 3.494-1.067 5.203-1.977l1.673 2.645c-2.072 1.985-7.743 1.335-9.192 5.784a5.964 5.964 0 0 1 3.313-1.926 5.42 5.42 0 0 1 1.188-.147h.043c.564-.009.928.052.928.052zm-17.889-.659c-3.894 0-7.12 3.191-7.12 7.093 0 3.833 3.226 7.033 7.12 7.033 3.954 0 7.18-3.191 7.18-7.033 0-3.893-3.226-7.093-7.18-7.093z"/>
    </g>
    <defs>
        <clipPath id="a">
            <path fill="#fff" d="M0 0h207.249v25H0z"/>
        </clipPath>
    </defs>
</svg>
