<svg xmlns="http://www.w3.org/2000/svg" width="25" height="25" fill="none" viewBox="0 0 25 25">
    <g clip-path="url(#b)">
        <path fill="#ADADAD" d="M12.494 25h.012A12.494 12.494 0 0 0 25 12.506V12.5a12.5 12.5 0 1 0-25 0v.007A12.494 12.494 0 0 0 12.494 25z"/>
        <path fill="#fff" d="M12.5 7.245c1.712 0 1.914.006 2.59.038.407.005.81.08 1.19.22a2.116 2.116 0 0 1 1.216 1.216c.142.381.216.784.221 1.19.032.677.038.88.038 2.59 0 1.712-.006 1.915-.038 2.592-.005.406-.08.809-.22 1.19a2.116 2.116 0 0 1-1.216 1.216 3.557 3.557 0 0 1-1.19.22c-.676.032-.88.038-2.592.038-1.712 0-1.914-.006-2.59-.038a3.557 3.557 0 0 1-1.19-.22 2.115 2.115 0 0 1-1.216-1.216 3.556 3.556 0 0 1-.22-1.19c-.032-.677-.038-.88-.038-2.591 0-1.713.006-1.914.038-2.59.005-.407.08-.81.22-1.19A2.115 2.115 0 0 1 8.72 7.502a3.557 3.557 0 0 1 1.19-.22c.677-.032.88-.038 2.59-.038zm0-1.155c-1.74 0-1.96.007-2.643.039-.532.01-1.058.11-1.556.296A3.271 3.271 0 0 0 6.43 8.297a4.689 4.689 0 0 0-.295 1.555c-.032.684-.04.903-.04 2.643 0 1.74.008 1.96.04 2.643.01.531.11 1.057.295 1.556a3.27 3.27 0 0 0 1.872 1.872 4.689 4.689 0 0 0 1.556.295c.684.032.902.04 2.642.04 1.74 0 1.96-.008 2.644-.04a4.688 4.688 0 0 0 1.555-.296 3.27 3.27 0 0 0 1.872-1.872 4.688 4.688 0 0 0 .296-1.555c.031-.684.04-.903.04-2.643 0-1.741-.009-1.96-.04-2.643a4.688 4.688 0 0 0-.296-1.556 3.271 3.271 0 0 0-1.872-1.871 4.689 4.689 0 0 0-1.555-.296c-.684-.032-.903-.04-2.644-.04z"/>
        <path fill="#fff" d="M12.5 9.209a3.291 3.291 0 1 0 0 6.583 3.291 3.291 0 0 0 0-6.583zm0 5.427a2.137 2.137 0 1 1 0-4.273 2.137 2.137 0 0 1 0 4.273zM15.921 9.848a.77.77 0 1 0 0-1.539.77.77 0 0 0 0 1.54z"/>
    </g>
    <defs>
        <clipPath id="a">
            <path fill="#fff" d="M0 0h25v25H0z"/>
        </clipPath>
        <clipPath id="b">
            <path fill="#fff" d="M0 0h25v25H0z"/>
        </clipPath>
    </defs>
</svg>
