<svg xmlns="http://www.w3.org/2000/svg" width="25" height="25" fill="none" viewBox="0 0 25 25">
    <g clip-path="url(#a)">
        <path fill="#ADADAD" d="M12.5 25c6.918 0 12.512-5.594 12.512-12.5C25 5.594 19.407 0 12.5 0 5.594 0 0 5.594 0 12.5S5.594 25 12.5 25z"/>
        <path fill="#fff" d="M19.805 8.367c-.5.224-1.049.374-1.623.45.587-.35 1.024-.9 1.236-1.562a5.64 5.64 0 0 1-1.786.687 2.807 2.807 0 0 0-2.06-.887 2.82 2.82 0 0 0-2.747 3.46 8.01 8.01 0 0 1-5.807-2.948c-.237.412-.387.9-.387 1.424 0 .974.5 1.836 1.249 2.348a2.733 2.733 0 0 1-1.274-.35v.037c0 1.362.974 2.51 2.26 2.76-.237.063-.487.1-.75.1-.186 0-.361-.012-.524-.05a2.825 2.825 0 0 0 2.635 1.96 5.626 5.626 0 0 1-3.496 1.212c-.225 0-.45-.012-.675-.037a7.997 7.997 0 0 0 4.321 1.26c5.182 0 8.03-4.295 8.03-8.029 0-.125 0-.25-.013-.362.55-.4 1.037-.899 1.411-1.473z"/>
    </g>
    <defs>
        <clipPath id="a">
            <path fill="#fff" d="M0 0h25v25H0z"/>
        </clipPath>
    </defs>
</svg>
