<svg xmlns="http://www.w3.org/2000/svg" width="25" height="25" fill="none" viewBox="0 0 25 25">
    <path fill="#ADADAD" d="M12.494 25h.012A12.494 12.494 0 0 0 25 12.506V12.5a12.5 12.5 0 1 0-25 0v.007A12.494 12.494 0 0 0 12.494 25z"/>
    <path fill="#fff" fill-rule="evenodd" d="M12.034 17.422h.948s.286-.032.433-.19c.147-.157.13-.415.13-.415s-.019-1.272.571-1.46c.59-.186 1.33 1.23 2.12 1.774.6.41 1.055.321 1.055.321l2.117-.03s1.107-.068.582-.938c-.043-.072-.306-.645-1.576-1.822-1.328-1.232-1.15-1.032.449-3.164.974-1.298 1.364-2.09 1.241-2.43-.115-.323-.831-.238-.831-.238l-2.384.015a.535.535 0 0 0-.308.055.67.67 0 0 0-.21.255c-.247.64-.542 1.262-.881 1.859-1.06 1.8-1.484 1.892-1.658 1.784-.404-.261-.302-1.047-.302-1.607 0-1.747.265-2.475-.516-2.66-.26-.063-.45-.104-1.112-.111-.852-.008-1.571 0-1.979.203-.268.129-.48.425-.353.441.158.02.515.099.704.354.244.332.235 1.084.235 1.084s.141 2.056-.328 2.31c-.32.176-.761-.181-1.708-1.817a15.143 15.143 0 0 1-.85-1.763.71.71 0 0 0-.197-.265.985.985 0 0 0-.366-.148l-2.266.014s-.34.01-.465.157c-.11.132-.009.404-.009.404s1.774 4.149 3.782 6.24c1.842 1.918 3.932 1.792 3.932 1.792v-.004z" clip-rule="evenodd"/>
</svg>
